# xmcd
#
# Track frame offsets:
#	150
#	19455
#	34583
#	52325
#	72957
#	87024
#	101921
#	120498
#	139237
#	150943
#	164722
#
# Disc length: 2434 seconds
#
# Revision: 0
# Processed by: cddbd v1.4PL0 Copyright (c) Steve Scherf et al.
# Submitted via: dBpowerAMP V4.0
#
DISCID=9609800b
DTITLE=Rascal Flatts - Melt
DYEAR=2002
DGENRE=Countryt
TTITLE0=These Days
TTITLE1=Too Good is True
TTITLE2=Melt
TTITLE3=Mayberry
TTITLE4=Love You Out Loud
TTITLE5=Dry Country Girl
TTITLE6=Like I Am
TTITLE7=You
TTITLE8=Fallin' Upside Down
TTITLE9=Shine On
TTITLE10=My Worst Fear
EXTD=
EXTT0=
EXTT1=
EXTT2=
EXTT3=
EXTT4=
EXTT5=
EXTT6=
EXTT7=
EXTT8=
EXTT9=
EXTT10=
PLAYORDER=
